<svg height="496pt" viewBox="-64 0 496 496" width="496pt" xmlns="http://www.w3.org/2000/svg"><path d="m368 184c0-101.457031-82.535156-184-184-184s-184 82.542969-184 184c0 90.535156 65.753906 165.960938 152 181.160156v18.839844h-8c-4.425781 0-8 3.585938-8 8v24h-8c-4.425781 0-8 3.585938-8 8v32c0 4.414062 3.574219 8 8 8h8v24c0 4.414062 3.574219 8 8 8h80c4.425781 0 8-3.585938 8-8v-24h8c4.425781 0 8-3.585938 8-8v-32c0-4.414062-3.574219-8-8-8h-8v-24c0-4.414062-3.574219-8-8-8h-8v-18.839844c86.246094-15.199218 152-90.625 152-181.160156zm-352 0c0-92.640625 75.367188-168 168-168s168 75.359375 168 168-75.367188 168-168 168-168-75.359375-168-168zm200 296h-64v-16h64zm16-32h-96v-16h96zm-80-32v-16h64v16zm48-32h-32v-16.734375c5.28125.453125 10.609375.734375 16 .734375s10.71875-.28125 16-.734375zm0 0"/><path d="m336 184c0-83.816406-68.183594-152-152-152s-152 68.183594-152 152 68.183594 152 152 152 152-68.183594 152-152zm-242.199219 101.511719 15.855469-15.855469-11.3125-11.3125-15.855469 15.855469c-8.488281-9.542969-15.625-20.253907-21.183593-31.902344l22.261718-11.136719-7.160156-14.3125-21.183594 10.59375c-3.78125-11.242187-6.09375-23.121094-6.816406-35.441406h23.59375v-16h-23.59375c.722656-12.320312 3.035156-24.199219 6.832031-35.433594l21.1875 10.59375 7.160157-14.3125-22.265626-11.136718c5.558594-11.648438 12.695313-22.367188 21.183594-31.902344l15.855469 15.855468 11.3125-11.3125-15.855469-15.855468c9.542969-8.488282 20.253906-15.625 31.902344-21.183594l11.136719 22.261719 14.3125-7.160157-10.59375-21.183593c11.226562-3.789063 23.105469-6.101563 35.425781-6.824219v23.59375h16v-23.59375c12.320312.722656 24.199219 3.035156 35.433594 6.832031l-10.59375 21.1875 14.3125 7.160157 11.136718-22.265626c11.648438 5.558594 22.367188 12.695313 31.902344 21.183594l-15.855468 15.855469 11.3125 11.3125 15.855468-15.855469c8.488282 9.542969 15.625 20.253906 21.183594 31.902344l-22.261719 11.136719 7.160157 14.3125 21.183593-10.59375c3.796875 11.234375 6.109375 23.113281 6.832031 35.433593h-23.601562v16h23.59375c-.722656 12.320313-3.035156 24.199219-6.832031 35.433594l-21.1875-10.59375-7.160157 14.3125 22.265626 11.136719c-5.558594 11.648437-12.695313 22.367187-21.183594 31.902344l-15.855469-15.855469-11.3125 11.3125 15.855469 15.855469c-24.023438 21.375-55.558594 34.488281-90.183594 34.488281s-66.160156-13.113281-90.199219-34.488281zm0 0"/><path d="m243.761719 113.214844-62.496094 39.066406c-16.355469 1.414062-29.265625 15.015625-29.265625 31.71875 0 17.648438 14.351562 32 32 32 16.710938 0 30.3125-12.921875 31.726562-29.273438l39.058594-62.488281c1.976563-3.160156 1.503906-7.261719-1.128906-9.894531-2.640625-2.632812-6.734375-3.097656-9.894531-1.128906zm-59.761719 86.785156c-8.824219 0-16-7.175781-16-16s7.175781-16 16-16 16 7.175781 16 16-7.175781 16-16 16zm26.078125-34.425781c-2.101563-2.964844-4.6875-5.550781-7.652344-7.652344l20.421875-12.769531zm0 0"/><path d="m232 232h-96c-4.425781 0-8 3.585938-8 8v32c0 4.414062 3.574219 8 8 8h96c4.425781 0 8-3.585938 8-8v-32c0-4.414062-3.574219-8-8-8zm-8 32h-80v-16h80zm0 0"/></svg>