<svg id="Layer_1" height="512" viewBox="0 0 128 128" width="512" xmlns="http://www.w3.org/2000/svg" data-name="Layer 1"><path d="m70.94 100.88a25.377 25.377 0 1 1 -37.54-22.28v-64.68a12.165 12.165 0 1 1 24.33 0v64.68a25.38 25.38 0 0 1 13.21 22.28z" fill="#eaeaea"/><path d="m30.4 81.6v-1.07a25.509 25.509 0 0 0 -4.212 3.97 25.441 25.441 0 0 1 4.212-2.9z" fill="#d2d2d2"/><path d="m57.73 78.6v-64.68a12.149 12.149 0 0 0 -22.125-6.974 12.156 12.156 0 0 1 19.123 9.976v64.678a25.375 25.375 0 0 1 7.2 38.666 25.38 25.38 0 0 0 -4.198-41.666z" fill="#d2d2d2"/><path d="m48.187 85.741v-70.491a2.625 2.625 0 0 0 -2.625-2.625 2.625 2.625 0 0 0 -2.625 2.625v70.491a15.375 15.375 0 1 0 5.25 0z" fill="#ff6e6e"/><path d="m48.187 85.741v-70.491a2.618 2.618 0 0 0 -4.721-1.565 2.616 2.616 0 0 1 1.8 2.481v70.491a15.351 15.351 0 0 1 3.409 29.255 15.355 15.355 0 0 0 -.492-30.171z" fill="#e56363"/><g fill="#d2d2d2"><path d="m57.73 22.38v3.5h-3.92a1.75 1.75 0 1 1 0-3.5z"/><path d="m57.73 14.62v3.5h-3.92a1.75 1.75 0 1 1 0-3.5z"/><path d="m57.73 30.12v3.5h-3.92a1.75 1.75 0 1 1 0-3.5z"/><path d="m57.73 37.88v3.5h-3.92a1.75 1.75 0 1 1 0-3.5z"/><path d="m57.73 45.62v3.5h-3.92a1.75 1.75 0 1 1 0-3.5z"/><path d="m57.73 53.38v3.5h-3.92a1.75 1.75 0 1 1 0-3.5z"/><path d="m57.73 61.12v3.5h-3.92a1.75 1.75 0 1 1 0-3.5z"/><path d="m57.73 68.88v3.5h-3.92a1.75 1.75 0 1 1 0-3.5z"/></g><path d="m68.979 28.5 4.395-4.882-.687-6.533 6.428-1.362 3.279-5.694 6.002 2.681 6.001-2.681 3.28 5.695 6.428 1.362-.687 6.533 4.394 4.881-4.395 4.882.687 6.533-6.428 1.362-3.279 5.694-6.001-2.681-6.002 2.681-3.279-5.695-6.428-1.362.687-6.533z" fill="#ffca28"/><path d="m107.812 28.5-4.394-4.881.687-6.533-6.428-1.362-3.28-5.695-2.844 1.271 3.124 5.424 6.428 1.362-.687 6.533 4.394 4.882-4.395 4.881.65 6.176 3.037-.643-.687-6.533z" fill="#ff8f00"/><circle cx="88.396" cy="28.5" fill="#9b6e42" r="9.595"/><path d="m88.4 18.9a9.56 9.56 0 0 0 -6.716 2.748 9.593 9.593 0 0 1 10.43 15.7 9.6 9.6 0 0 0 -3.714-18.448z" fill="#6d4c41"/><path d="m59.479 77.589v-63.672a13.917 13.917 0 1 0 -27.833 0v16.2a1.75 1.75 0 0 0 3.5 0v-16.2a10.417 10.417 0 1 1 20.833 0v.708h-2.167a1.75 1.75 0 0 0 0 3.5h2.167v4.25h-2.167a1.75 1.75 0 0 0 0 3.5h2.167v4.25h-2.167a1.75 1.75 0 0 0 0 3.5h2.167v4.25h-2.167a1.75 1.75 0 0 0 0 3.5h2.167v4.25h-2.167a1.75 1.75 0 0 0 0 3.5h2.167v4.25h-2.167a1.75 1.75 0 0 0 0 3.5h2.167v4.25h-2.167a1.75 1.75 0 0 0 0 3.5h2.167v4.25h-2.167a1.75 1.75 0 0 0 0 3.5h2.167v6.225a1.75 1.75 0 0 0 .91 1.535 23.64 23.64 0 0 1 12.3 20.736 23.627 23.627 0 0 1 -25.142 23.578 23.627 23.627 0 0 1 -9.809-44.314 1.75 1.75 0 0 0 .91-1.535v-29.48a1.75 1.75 0 1 0 -3.5 0v28.469a27.126 27.126 0 0 0 12.182 50.356q.883.055 1.757.055a26.866 26.866 0 0 0 18.548-7.354 27.128 27.128 0 0 0 -4.654-43.057z"/><path d="m33.4 42.9a1.75 1.75 0 0 0 1.75-1.75v-3.05a1.75 1.75 0 0 0 -3.5 0v3.05a1.75 1.75 0 0 0 1.75 1.75z"/><path d="m45.562 10.875a4.38 4.38 0 0 0 -4.375 4.375v69.084a17.116 17.116 0 0 0 3.513 33.645q.439.021.874.021a17.118 17.118 0 0 0 4.364-33.668v-69.082a4.38 4.38 0 0 0 -4.376-4.375zm13.625 90a13.642 13.642 0 0 1 -14.315 13.608 13.617 13.617 0 0 1 -1.637-27.018 1.75 1.75 0 0 0 1.452-1.724v-70.491a.875.875 0 1 1 1.75 0v70.491a1.75 1.75 0 0 0 1.452 1.725 13.586 13.586 0 0 1 11.298 13.409z"/><path d="m93.923 20.465a1.75 1.75 0 0 0 .006 2.475 7.844 7.844 0 1 1 -5.529-2.285q.248 0 .491.016a1.75 1.75 0 0 0 .223-3.493c-.236-.015-.475-.022-.714-.022a11.345 11.345 0 1 0 8 3.3 1.75 1.75 0 0 0 -2.477.009z"/><path d="m109.113 27.329-3.874-4.3.605-5.758a1.75 1.75 0 0 0 -1.377-1.9l-5.664-1.2-2.89-5.018a1.75 1.75 0 0 0 -2.23-.724l-5.283 2.364-5.292-2.361a1.749 1.749 0 0 0 -2.23.724l-2.89 5.018-5.664 1.2a1.75 1.75 0 0 0 -1.377 1.9l.6 5.758-3.874 4.3a1.75 1.75 0 0 0 0 2.342l3.874 4.3-.605 5.758a1.75 1.75 0 0 0 1.377 1.9l5.664 1.2 2.889 5.017a1.748 1.748 0 0 0 2.23.725l5.298-2.367 5.288 2.362a1.748 1.748 0 0 0 2.23-.725l2.882-5.017 5.664-1.2a1.75 1.75 0 0 0 1.377-1.9l-.605-5.758 3.874-4.3a1.75 1.75 0 0 0 .003-2.34zm-7 4.882a1.75 1.75 0 0 0 -.439 1.354l.522 4.964-4.886 1.035a1.749 1.749 0 0 0 -1.154.839l-2.491 4.325-4.555-2.036a1.749 1.749 0 0 0 -1.428 0l-4.56 2.036-2.49-4.328a1.749 1.749 0 0 0 -1.154-.839l-4.886-1.035.522-4.965a1.748 1.748 0 0 0 -.44-1.354l-3.34-3.71 3.341-3.711a1.75 1.75 0 0 0 .439-1.354l-.521-4.964 4.885-1.035a1.75 1.75 0 0 0 1.154-.838l2.491-4.326 4.559 2.036a1.749 1.749 0 0 0 1.428 0l4.559-2.036 2.491 4.331a1.75 1.75 0 0 0 1.154.838l4.885 1.035-.522 4.965a1.748 1.748 0 0 0 .44 1.354l3.34 3.71z"/></svg>