<?xml version="1.0" ?><!DOCTYPE svg  PUBLIC '-//W3C//DTD SVG 1.1//EN'  'http://www.w3.org/Graphics/SVG/1.1/DTD/svg11.dtd'><svg height="512px" style="enable-background:new 0 0 512 512;" version="1.1" viewBox="0 0 512 512" width="512px" xml:space="preserve" xmlns="http://www.w3.org/2000/svg" xmlns:xlink="http://www.w3.org/1999/xlink"><g id="Ecology_x2C__recycle_x2C__save_water"><g><path d="M255.46,105.23v63.374h32.192V105.23h30.949    c3.754,0,6.82-3.066,6.82-6.825V77.943c0-3.745-3.066-6.811-6.82-6.811h-94.09c-3.745,0-6.811,3.066-6.811,6.811v20.462    c0,3.759,3.065,6.825,6.811,6.825H255.46z" style="fill-rule:evenodd;clip-rule:evenodd;fill:#2683AE;"/><path d="M415.541,413.566c0,6.063-6.076,10.617-12.141,10.617    s-10.629-4.555-10.629-10.617c0-7.641,10.629-19.77,10.629-19.77S415.541,405.926,415.541,413.566L415.541,413.566z" style="fill-rule:evenodd;clip-rule:evenodd;fill:#6BCCE0;"/><path d="M372.998,313.334c0,0,10.682,12.141,10.682,18.205    s-4.605,12.141-10.682,12.141c-6.059,0-12.129-6.076-12.129-12.141S372.998,313.334,372.998,313.334L372.998,313.334z" style="fill-rule:evenodd;clip-rule:evenodd;fill:#6BCCE0;"/><path d="M391.209,381.652c0,6.066-4.498,10.621-10.576,10.621    c-7.635,0-12.178-4.555-12.178-10.621c0-7.584,12.178-19.713,12.178-19.713S391.209,374.068,391.209,381.652L391.209,381.652z" style="fill-rule:evenodd;clip-rule:evenodd;fill:#6BCCE0;"/><path d="M409.465,355.877c0,3.018-3.023,6.063-6.064,6.063    c-3.033,0-6.064-3.045-6.064-6.063c0-4.609,6.064-12.197,6.064-12.197S409.465,351.268,409.465,355.877L409.465,355.877z" style="fill-rule:evenodd;clip-rule:evenodd;fill:#6BCCE0;"/><path d="M383.68,430.246c0,6.066-4.605,10.621-10.682,10.621    c-6.059,0-10.6-4.555-10.6-10.621c0-6.063,10.6-18.188,10.6-18.188C376.369,415.863,383.68,425.291,383.68,430.246L383.68,430.246    z" style="fill-rule:evenodd;clip-rule:evenodd;fill:#6BCCE0;"/><path d="M180.39,224.936v-56.332V117.51    c0-4.597-3.794-8.383-8.39-8.383h-67.158c-4.588,0-8.383,3.767-8.383,8.383v156.373c0,4.607,3.766,8.383,8.383,8.383H172    c4.611,0,8.39-3.781,8.39-8.383V224.936z" style="fill-rule:evenodd;clip-rule:evenodd;fill:#61BDD0;"/><path d="M180.39,168.604v56.332h125.075    c31.578,0,51.77,18.219,51.77,50.656v24.451h56.334v-42.068c0-56.256-43.352-89.371-97.338-89.371h-28.578H255.46H180.39z" style="fill-rule:evenodd;clip-rule:evenodd;fill:#247094;"/></g></g><g id="Layer_1"/></svg>